<svg id="Layer_1" data-name="Layer 1" xmlns="http://www.w3.org/2000/svg" viewBox="0 0 85.14 73"><defs><style>.cls-1{fill:#fff;}.cls-2{fill:#5ce1e6;}</style></defs><path class="cls-1" d="M42.57.43A36.07,36.07,0,1,0,78.64,36.5h-18a18,18,0,1,1-18-18Z"/><path class="cls-2" d="M42.57.43A36.09,36.09,0,0,0,6.5,36.5h18a18,18,0,0,1,1.38-6.9A18,18,0,0,1,42.57,18.47Z"/><circle class="cls-2" cx="42.57" cy="36.5" r="11.27"/><path class="cls-1" d="M53.84,36.5A11.16,11.16,0,0,0,53,32.19a11.45,11.45,0,0,0-2.44-3.66,11.32,11.32,0,0,0-8-3.3,11.25,11.25,0,0,0-4.32.86,11.09,11.09,0,0,0-3.65,2.44,11.2,11.2,0,0,0-3.3,8H53.84Z"/></svg>